<?xml version="1.0" encoding="utf-8"?>
<!-- Generator: Adobe Illustrator 18.0.0, SVG Export Plug-In . SVG Version: 6.00 Build 0)  -->
<!DOCTYPE svg PUBLIC "-//W3C//DTD SVG 1.1//EN" "http://www.w3.org/Graphics/SVG/1.1/DTD/svg11.dtd">
<svg version="1.1" xmlns="http://www.w3.org/2000/svg" xmlns:xlink="http://www.w3.org/1999/xlink" x="0px" y="0px"
	 viewBox="0 0 236.9 68.9" enable-background="new 0 0 236.9 68.9" xml:space="preserve">
<g id="Layer_0_xA0_Image_1_">
	<rect x="72.7" y="11.6" fill="#FFFFFF" width="3.5" height="46"/>
</g>
<g id="FRIEND_x0D_MANAGER">
	<polygon fill="#FFFFFF" points="26.2,37.8 33.8,37.8 33.8,31.4 26.2,31.4 26.2,27.7 36.8,27.7 36.8,21.1 17.8,21.1 17.8,47.9 
		26.2,47.9 	"/>
	<path fill="#FFFFFF" d="M48,47.9v-9.6h0l5,9.6h9.2l-5.8-10.3c3.8-1.2,5.8-4.2,5.8-7.8c0-4.9-3.4-8.8-10.2-8.8H39.6v26.8H48z
		 M48,28.1h3.3c1.6,0,2.4,0.9,2.4,2.3c0,1.6-0.8,2.3-2.4,2.3H48V28.1z"/>
	<g>
		<path fill="#FFFFFF" d="M83.8,11.4H97v4h-8.3v4.3H95v3.9h-6.2v8.2h-5V11.4z"/>
		<path fill="#FFFFFF" d="M108,11.4c5,0,7.5,2.9,7.5,6.4c0,2.6-1.4,5-4.5,5.9l4.7,8.1H110l-4.2-7.7h-1.2v7.7h-5V11.4H108z
			 M107.7,15.5h-3.1v5h3.1c1.9,0,2.7-1,2.7-2.6C110.4,16.5,109.5,15.5,107.7,15.5z"/>
		<path fill="#FFFFFF" d="M118.6,11.4h5v20.4h-5V11.4z"/>
		<path fill="#FFFFFF" d="M139.6,15.4h-7.5v4.1h6.6v3.8h-6.6v4.5h7.5v4h-12.5V11.4h12.5V15.4z"/>
		<path fill="#FFFFFF" d="M161,11.4v20.4h-5l-8.3-12.6v12.6h-5V11.4h5l8.3,12.6V11.4H161z"/>
		<path fill="#FFFFFF" d="M182.9,21.6c0,6-4.2,10.2-10.7,10.2h-7.6V11.4h7.6C178.7,11.4,182.9,15.5,182.9,21.6z M171.9,27.5
			c3.7,0,5.9-2.1,5.9-5.9c0-3.7-2.2-5.9-5.9-5.9h-2.3v11.8H171.9z"/>
		<path fill="#FFFFFF" d="M92.1,37.4c5,0,7.5,2.9,7.5,6.4c0,2.6-1.4,5-4.5,5.9l4.7,8.1h-5.6l-4.2-7.7h-1.2v7.7h-5V37.4H92.1z
			 M91.8,41.5h-3.1v5h3.1c1.9,0,2.7-1,2.7-2.6C94.6,42.5,93.7,41.5,91.8,41.5z"/>
		<path fill="#FFFFFF" d="M115.2,41.4h-7.5v4.1h6.6v3.8h-6.6v4.5h7.5v4h-12.5V37.4h12.5V41.4z"/>
		<path fill="#FFFFFF" d="M118.4,37.4h5.9l5.7,14.1l5.7-14.1h5.8v20.4h-5V45.5l-4.6,12.2h-4l-4.6-12.2v12.2h-5V37.4z"/>
		<path fill="#FFFFFF" d="M154.6,58c-5.8,0-10.5-4.3-10.5-10.4c0-6.1,4.7-10.4,10.5-10.4c5.8,0,10.4,4.3,10.4,10.4
			C165.1,53.6,160.4,58,154.6,58z M154.6,53.4c3.2,0,5.4-2.3,5.4-5.9c0-3.6-2.1-5.9-5.4-5.9c-3.3,0-5.4,2.3-5.4,5.9
			C149.2,51.1,151.3,53.4,154.6,53.4z"/>
		<path fill="#FFFFFF" d="M181.7,37.4h5.3l-7.2,20.4h-6.2l-7.2-20.4h5.3l5,15.4L181.7,37.4z"/>
		<path fill="#FFFFFF" d="M201.4,41.4h-7.5v4.1h6.6v3.8h-6.6v4.5h7.5v4H189V37.4h12.5V41.4z"/>
		<path fill="#FFFFFF" d="M213,37.4c5,0,7.5,2.9,7.5,6.4c0,2.6-1.4,5-4.5,5.9l4.7,8.1H215l-4.2-7.7h-1.2v7.7h-5V37.4H213z
			 M212.7,41.5h-3.1v5h3.1c1.9,0,2.7-1,2.7-2.6C215.4,42.5,214.6,41.5,212.7,41.5z"/>
	</g>
</g>
<g id="FM__x2B__Layer_2_xA0_Image_1_">
</g>
</svg>
