<?xml version="1.0" standalone="no"?>
<!DOCTYPE svg PUBLIC "-//W3C//DTD SVG 20010904//EN" "http://www.w3.org/TR/2001/REC-SVG-20010904/DTD/svg10.dtd">
<svg version="1.0" xmlns="http://www.w3.org/2000/svg" width="414.000000pt" height="361.000000pt"
    viewBox="0 0 414.000000 361.000000" preserveAspectRatio="xMidYMid meet">

    <g transform="translate(0.000000,361.000000) scale(0.100000,-0.100000)" fill="#fff" stroke="none">
        <path d="M1802 3030 c-37 -23 -52 -52 -77 -156 l-17 -72 -76 -27 c-42 -15
-103 -40 -136 -56 -32 -16 -64 -29 -70 -29 -7 0 -48 20 -92 45 -84 48 -125 55
-172 31 -32 -17 -195 -181 -211 -213 -21 -42 -12 -86 34 -165 25 -43 45 -84
45 -92 0 -7 -13 -40 -29 -72 -16 -33 -41 -93 -56 -135 l-27 -76 -86 -23 c-108
-28 -118 -34 -142 -73 -17 -28 -20 -51 -20 -175 0 -164 8 -191 68 -220 20 -11
69 -27 108 -36 l72 -18 27 -76 c15 -42 40 -103 56 -136 16 -32 29 -65 29 -73
0 -9 -19 -45 -41 -81 -48 -76 -59 -133 -36 -178 23 -44 199 -212 230 -220 45
-11 89 2 161 45 36 23 73 41 81 41 9 0 46 -15 83 -34 37 -18 97 -43 133 -55
l66 -22 23 -87 c41 -155 52 -162 252 -162 200 0 211 8 253 177 l19 73 65 21
c36 12 96 37 133 55 37 19 74 34 81 34 7 0 49 -20 93 -45 81 -46 125 -55 167
-34 32 16 196 179 213 211 24 47 17 88 -31 172 -25 44 -45 86 -45 93 0 7 15
44 34 81 18 37 43 97 55 133 22 66 22 67 69 79 124 31 157 46 179 79 21 31 23
45 23 178 0 201 -9 215 -164 254 l-85 21 -22 67 c-12 36 -37 96 -55 133 -19
37 -34 74 -34 83 0 8 18 45 41 81 43 72 56 116 45 161 -8 30 -176 207 -218
229 -52 27 -116 11 -213 -55 -40 -28 -51 -27 -131 13 -38 18 -99 43 -136 55
l-66 22 -18 72 c-41 169 -53 177 -254 177 -128 0 -149 -2 -178 -20z m316 -82
c6 -7 20 -51 32 -98 12 -47 31 -95 42 -107 11 -12 57 -34 102 -48 44 -15 116
-45 158 -67 89 -46 90 -45 196 18 40 24 83 44 95 44 30 0 187 -157 187 -187 0
-12 -21 -56 -46 -98 -25 -41 -45 -87 -46 -102 0 -16 18 -67 41 -115 23 -47 50
-115 61 -150 11 -35 30 -74 42 -85 13 -12 59 -31 108 -43 115 -28 120 -35 120
-164 0 -127 -9 -146 -75 -163 -170 -44 -159 -36 -201 -159 -14 -43 -43 -113
-65 -155 -45 -90 -44 -98 20 -202 22 -37 41 -77 41 -89 0 -31 -156 -188 -187
-188 -13 0 -53 19 -90 41 -103 63 -113 64 -197 22 -39 -20 -113 -51 -165 -69
-52 -18 -98 -37 -104 -43 -5 -5 -22 -54 -36 -108 -32 -120 -36 -123 -176 -123
-131 0 -136 4 -165 121 -14 56 -30 98 -43 110 -11 10 -56 30 -100 44 -44 15
-112 42 -151 62 -39 20 -83 36 -97 35 -14 0 -61 -21 -103 -46 -43 -25 -87 -46
-98 -46 -28 0 -188 157 -188 184 0 12 20 55 44 96 63 109 63 108 17 200 -22
44 -51 114 -65 155 -14 41 -30 83 -35 94 -11 19 -59 38 -156 61 -27 6 -55 16
-62 22 -18 15 -18 261 0 276 6 6 50 20 97 32 48 12 95 31 108 43 12 11 31 51
42 88 11 36 40 107 65 156 51 103 51 105 -12 211 -24 41 -43 83 -43 95 0 28
159 187 188 187 12 0 56 -21 99 -46 43 -26 89 -47 103 -47 14 0 63 18 109 41
45 23 113 51 150 62 37 11 77 30 88 42 12 13 31 60 43 108 12 47 26 91 32 98
7 8 48 12 138 12 90 0 131 -4 138 -12z" />
        <path d="M1951 2646 c-7 -9 -11 -41 -9 -83 l3 -68 35 0 35 0 3 70 c2 57 0 72
-14 82 -23 17 -39 16 -53 -1z" />
        <path d="M1726 2614 c-20 -19 -19 -35 2 -99 14 -41 22 -51 43 -53 14 -2 31 3
38 11 25 30 -18 157 -53 157 -8 0 -22 -7 -30 -16z" />
        <path d="M2178 2613 c-9 -10 -21 -42 -28 -71 -14 -62 -3 -85 39 -80 21 2 29
12 43 53 21 64 22 80 2 99 -20 21 -37 20 -56 -1z" />
        <path d="M1512 2528 c-18 -18 -15 -35 16 -89 29 -52 61 -70 87 -49 20 17 19
33 -5 79 -34 67 -69 88 -98 59z" />
        <path d="M2388 2527 c-7 -8 -25 -35 -38 -61 -29 -54 -21 -81 25 -81 24 0 33 8
59 57 25 46 29 61 20 75 -14 23 -47 28 -66 10z" />
        <path d="M1488 2163 c-9 -10 -25 -49 -36 -88 -11 -38 -64 -215 -117 -392 -105
-349 -109 -373 -55 -373 35 0 35 -1 81 153 l33 107 117 0 c81 0 120 -4 127
-12 5 -7 22 -53 36 -103 42 -141 44 -145 78 -145 47 0 48 32 5 175 -35 114
-197 659 -197 661 0 2 -7 10 -16 18 -20 21 -37 20 -56 -1z m81 -358 c23 -77
41 -144 41 -148 0 -10 -178 -9 -184 1 -4 7 51 207 80 291 9 27 22 -3 63 -144z" />
        <path d="M1910 2160 c-19 -19 -20 -33 -20 -416 0 -253 4 -402 10 -415 13 -24
65 -26 74 -3 3 9 6 85 6 169 l0 153 113 4 c104 3 117 5 155 31 68 44 82 84 82
232 0 104 -3 132 -19 163 -42 82 -90 101 -258 102 -110 0 -125 -2 -143 -20z
m283 -81 c38 -17 47 -51 47 -173 0 -99 -2 -115 -20 -134 -27 -29 -49 -33 -150
-30 l-85 3 -3 160 c-1 87 0 165 2 172 7 17 174 18 209 2z" />
        <path d="M2436 2164 c-33 -32 -13 -74 36 -74 20 0 29 -6 33 -22 3 -13 4 -169
3 -348 l-3 -325 -30 -3 c-54 -6 -72 -43 -38 -77 22 -23 218 -19 233 5 21 33 5
59 -41 69 l-34 7 0 344 0 344 34 7 c50 10 66 43 35 73 -12 12 -38 16 -114 16
-76 0 -102 -4 -114 -16z" />
        <path d="M1564 1093 c-6 -5 -23 -30 -39 -56 -23 -41 -26 -52 -17 -73 23 -48
72 -22 108 57 13 30 15 45 7 57 -11 19 -42 26 -59 15z" />
        <path d="M2342 1088 c-18 -18 -15 -35 15 -89 28 -52 62 -71 88 -49 22 18 19
39 -15 98 -31 54 -61 67 -88 40z" />
        <path d="M1745 1010 c-15 -24 -35 -113 -30 -130 10 -30 46 -36 66 -11 26 32
44 118 29 136 -14 17 -56 20 -65 5z" />
        <path d="M2150 1005 c-10 -11 -10 -26 0 -67 14 -58 34 -88 60 -88 43 0 49 56
15 138 -15 35 -52 44 -75 17z" />
        <path d="M1963 989 c-21 -8 -23 -15 -23 -77 0 -81 14 -102 55 -84 23 11 25 17
25 81 0 77 -14 97 -57 80z" />
    </g>
</svg>