<?xml version="1.0" standalone="no"?>
<!DOCTYPE svg PUBLIC "-//W3C//DTD SVG 20010904//EN"
 "http://www.w3.org/TR/2001/REC-SVG-20010904/DTD/svg10.dtd">
<svg version="1.0" xmlns="http://www.w3.org/2000/svg"
 width="200.000000pt" height="200.000000pt" viewBox="0 0 200.000000 200.000000"
 preserveAspectRatio="xMidYMid meet">

<g transform="translate(0.000000,200.000000) scale(0.100000,-0.100000)"
fill="#ffff" stroke="none">
<path d="M1545 1821 c-25 -12 -117 -97 -245 -225 l-205 -206 -51 0 c-228 0
-503 -131 -788 -375 l-105 -90 377 -377 c207 -208 380 -378 384 -378 4 0 44
42 88 93 230 262 380 575 380 792 l0 73 208 212 c114 116 212 223 219 238 28
61 5 160 -48 209 -58 53 -144 67 -214 34z m135 -74 c36 -28 60 -71 60 -105 0
-34 -17 -53 -265 -302 l-265 -265 -82 82 -83 83 230 231 c127 127 248 244 269
260 42 31 107 39 136 16z m-710 -472 l-34 -35 139 -140 139 -140 44 43 44 42
-7 -60 c-15 -130 -96 -322 -201 -477 -60 -87 -172 -228 -183 -228 -3 0 -152
146 -330 324 l-323 323 96 79 c201 165 476 301 615 303 l35 1 -34 -35z"/>
<path d="M1575 1651 c-9 -30 5 -51 35 -51 30 0 44 21 35 51 -4 13 -16 19 -35
19 -19 0 -31 -6 -35 -19z"/>
</g>
</svg>